<svg width="235" height="69" viewBox="0 0 235 69" fill="none" xmlns="http://www.w3.org/2000/svg">
<path d="M232.301 63.0237C232.686 63.9298 232.503 64.977 231.834 65.699C231.165 66.421 230.135 66.6834 229.202 66.3693L215.939 61.9026H15C8.09644 61.9026 2.5 56.3062 2.5 49.4026V15C2.5 8.09644 8.09647 2.5 15 2.5H215.449C222.353 2.5 227.949 8.09645 227.949 15V52.7644L232.301 63.0237Z" fill="#1681FF" stroke="black" stroke-width="5" stroke-linejoin="round"/>
<path d="M38.4521 44H33.8086L33.8379 40.5723H38.4521C39.6045 40.5723 40.5762 40.3135 41.3672 39.7959C42.1582 39.2686 42.7539 38.502 43.1543 37.4961C43.5645 36.4902 43.7695 35.2744 43.7695 33.8486V32.8086C43.7695 31.7148 43.6523 30.7529 43.418 29.9229C43.1934 29.0928 42.8564 28.3945 42.4072 27.8281C41.958 27.2617 41.4062 26.8369 40.752 26.5537C40.0977 26.2607 39.3457 26.1143 38.4961 26.1143H33.7207V22.6719H38.4961C39.9219 22.6719 41.2256 22.916 42.4072 23.4043C43.5986 23.8828 44.6289 24.5713 45.498 25.4697C46.3672 26.3682 47.0361 27.4424 47.5049 28.6924C47.9834 29.9326 48.2227 31.3145 48.2227 32.8379V33.8486C48.2227 35.3623 47.9834 36.7441 47.5049 37.9941C47.0361 39.2441 46.3672 40.3184 45.498 41.2168C44.6387 42.1055 43.6084 42.7939 42.4072 43.2822C41.2158 43.7607 39.8975 44 38.4521 44ZM36.2988 22.6719V44H31.9043V22.6719H36.2988ZM50.4785 36.2363V35.9287C50.4785 34.7666 50.6445 33.6973 50.9766 32.7207C51.3086 31.7344 51.792 30.8799 52.4268 30.1572C53.0615 29.4346 53.8428 28.873 54.7705 28.4727C55.6982 28.0625 56.7627 27.8574 57.9639 27.8574C59.165 27.8574 60.2344 28.0625 61.1719 28.4727C62.1094 28.873 62.8955 29.4346 63.5303 30.1572C64.1748 30.8799 64.6631 31.7344 64.9951 32.7207C65.3271 33.6973 65.4932 34.7666 65.4932 35.9287V36.2363C65.4932 37.3887 65.3271 38.458 64.9951 39.4443C64.6631 40.4209 64.1748 41.2754 63.5303 42.0078C62.8955 42.7305 62.1143 43.292 61.1865 43.6924C60.2588 44.0928 59.1943 44.293 57.9932 44.293C56.792 44.293 55.7227 44.0928 54.7852 43.6924C53.8574 43.292 53.0713 42.7305 52.4268 42.0078C51.792 41.2754 51.3086 40.4209 50.9766 39.4443C50.6445 38.458 50.4785 37.3887 50.4785 36.2363ZM54.6973 35.9287V36.2363C54.6973 36.9004 54.7559 37.5205 54.873 38.0967C54.9902 38.6729 55.1758 39.1807 55.4297 39.6201C55.6934 40.0498 56.0352 40.3867 56.4551 40.6309C56.875 40.875 57.3877 40.9971 57.9932 40.9971C58.5791 40.9971 59.082 40.875 59.502 40.6309C59.9219 40.3867 60.2588 40.0498 60.5127 39.6201C60.7666 39.1807 60.9521 38.6729 61.0693 38.0967C61.1963 37.5205 61.2598 36.9004 61.2598 36.2363V35.9287C61.2598 35.2842 61.1963 34.6787 61.0693 34.1123C60.9521 33.5361 60.7617 33.0283 60.498 32.5889C60.2441 32.1396 59.9072 31.7881 59.4873 31.5342C59.0674 31.2803 58.5596 31.1533 57.9639 31.1533C57.3682 31.1533 56.8604 31.2803 56.4404 31.5342C56.0303 31.7881 55.6934 32.1396 55.4297 32.5889C55.1758 33.0283 54.9902 33.5361 54.873 34.1123C54.7559 34.6787 54.6973 35.2842 54.6973 35.9287ZM72.6123 39.8984L75.9082 28.1504H78.5889L77.7246 32.7646L74.4287 44H72.1875L72.6123 39.8984ZM70.9424 28.1504L73.3008 39.8838L73.5205 44H70.8838L66.8701 28.1504H70.9424ZM81.6064 39.6934L83.9062 28.1504H87.9932L83.9795 44H81.3574L81.6064 39.6934ZM78.9551 28.1504L82.2363 39.8105L82.6904 44H80.4346L77.1387 32.7793L76.3037 28.1504H78.9551ZM94.248 31.5342V44H90.0293V28.1504H93.9844L94.248 31.5342ZM93.6328 35.5186H92.4902C92.4902 34.3467 92.6416 33.292 92.9443 32.3545C93.2471 31.4072 93.6719 30.6016 94.2188 29.9375C94.7656 29.2637 95.415 28.751 96.167 28.3994C96.9287 28.0381 97.7783 27.8574 98.7158 27.8574C99.458 27.8574 100.137 27.9648 100.752 28.1797C101.367 28.3945 101.895 28.7363 102.334 29.2051C102.783 29.6738 103.125 30.2939 103.359 31.0654C103.604 31.8369 103.726 32.7793 103.726 33.8926V44H99.4775V33.8779C99.4775 33.1748 99.3799 32.6279 99.1846 32.2373C98.9893 31.8467 98.7012 31.5732 98.3203 31.417C97.9492 31.251 97.4902 31.168 96.9434 31.168C96.377 31.168 95.8838 31.2803 95.4639 31.5049C95.0537 31.7295 94.7119 32.042 94.4385 32.4424C94.1748 32.833 93.9746 33.292 93.8379 33.8193C93.7012 34.3467 93.6328 34.9131 93.6328 35.5186ZM122.168 28.1504V31.1387H112.939V28.1504H122.168ZM115.225 24.2393H119.443V39.2246C119.443 39.6836 119.502 40.0352 119.619 40.2793C119.746 40.5234 119.932 40.6943 120.176 40.792C120.42 40.8799 120.728 40.9238 121.099 40.9238C121.362 40.9238 121.597 40.9141 121.802 40.8945C122.017 40.8652 122.197 40.8359 122.344 40.8066L122.358 43.9121C121.997 44.0293 121.606 44.1221 121.187 44.1904C120.767 44.2588 120.303 44.293 119.795 44.293C118.867 44.293 118.057 44.1416 117.363 43.8389C116.68 43.5264 116.152 43.0283 115.781 42.3447C115.41 41.6611 115.225 40.7627 115.225 39.6494V24.2393ZM123.516 36.2363V35.9287C123.516 34.7666 123.682 33.6973 124.014 32.7207C124.346 31.7344 124.829 30.8799 125.464 30.1572C126.099 29.4346 126.88 28.873 127.808 28.4727C128.735 28.0625 129.8 27.8574 131.001 27.8574C132.202 27.8574 133.271 28.0625 134.209 28.4727C135.146 28.873 135.933 29.4346 136.567 30.1572C137.212 30.8799 137.7 31.7344 138.032 32.7207C138.364 33.6973 138.53 34.7666 138.53 35.9287V36.2363C138.53 37.3887 138.364 38.458 138.032 39.4443C137.7 40.4209 137.212 41.2754 136.567 42.0078C135.933 42.7305 135.151 43.292 134.224 43.6924C133.296 44.0928 132.231 44.293 131.03 44.293C129.829 44.293 128.76 44.0928 127.822 43.6924C126.895 43.292 126.108 42.7305 125.464 42.0078C124.829 41.2754 124.346 40.4209 124.014 39.4443C123.682 38.458 123.516 37.3887 123.516 36.2363ZM127.734 35.9287V36.2363C127.734 36.9004 127.793 37.5205 127.91 38.0967C128.027 38.6729 128.213 39.1807 128.467 39.6201C128.73 40.0498 129.072 40.3867 129.492 40.6309C129.912 40.875 130.425 40.9971 131.03 40.9971C131.616 40.9971 132.119 40.875 132.539 40.6309C132.959 40.3867 133.296 40.0498 133.55 39.6201C133.804 39.1807 133.989 38.6729 134.106 38.0967C134.233 37.5205 134.297 36.9004 134.297 36.2363V35.9287C134.297 35.2842 134.233 34.6787 134.106 34.1123C133.989 33.5361 133.799 33.0283 133.535 32.5889C133.281 32.1396 132.944 31.7881 132.524 31.5342C132.104 31.2803 131.597 31.1533 131.001 31.1533C130.405 31.1533 129.897 31.2803 129.478 31.5342C129.067 31.7881 128.73 32.1396 128.467 32.5889C128.213 33.0283 128.027 33.5361 127.91 34.1123C127.793 34.6787 127.734 35.2842 127.734 35.9287ZM200.61 37.4814H196.875C196.885 36.6025 196.953 35.8457 197.08 35.2109C197.217 34.5664 197.446 33.9854 197.769 33.4678C198.101 32.9502 198.54 32.4375 199.087 31.9297C199.546 31.5195 199.946 31.1289 200.288 30.7578C200.63 30.3867 200.898 30.0059 201.094 29.6152C201.289 29.2148 201.387 28.7705 201.387 28.2822C201.387 27.7158 201.299 27.2471 201.123 26.876C200.957 26.4951 200.703 26.207 200.361 26.0117C200.029 25.8164 199.609 25.7188 199.102 25.7188C198.682 25.7188 198.291 25.8115 197.93 25.9971C197.568 26.1729 197.271 26.4463 197.036 26.8174C196.812 27.1885 196.694 27.6768 196.685 28.2822H192.437C192.466 26.9443 192.773 25.8408 193.359 24.9717C193.955 24.0928 194.751 23.4434 195.747 23.0234C196.743 22.5938 197.861 22.3789 199.102 22.3789C200.469 22.3789 201.641 22.6035 202.617 23.0527C203.594 23.4922 204.341 24.1416 204.858 25.001C205.376 25.8506 205.635 26.8857 205.635 28.1064C205.635 28.9561 205.469 29.7129 205.137 30.377C204.805 31.0312 204.37 31.6416 203.833 32.208C203.296 32.7744 202.705 33.3604 202.061 33.9658C201.504 34.4639 201.123 34.9863 200.918 35.5332C200.723 36.0801 200.62 36.7295 200.61 37.4814ZM196.436 42.0078C196.436 41.3828 196.65 40.8652 197.08 40.4551C197.51 40.0352 198.086 39.8252 198.809 39.8252C199.521 39.8252 200.093 40.0352 200.522 40.4551C200.962 40.8652 201.182 41.3828 201.182 42.0078C201.182 42.6133 200.962 43.126 200.522 43.5459C200.093 43.9658 199.521 44.1758 198.809 44.1758C198.086 44.1758 197.51 43.9658 197.08 43.5459C196.65 43.126 196.436 42.6133 196.436 42.0078Z" fill="white"/>
<path d="M161 44H150C150 44 148 44 148 42V37C148 35 150 35 150 35H161V44Z" fill="#D99E82"/>
<path d="M160 35H174V44H160V35Z" fill="#E1E8ED"/>
<path d="M179 35H173V44H179C179 44 181 44 181 42V37C181 35 179 35 179 35Z" fill="#66757F"/>
<path d="M175.79 34C175.302 34 174.874 33.642 174.802 33.145C174.773 32.945 174.148 28.221 179.277 25.143C181.775 23.644 182.34 20.897 181.809 18.979C181.561 18.083 180.673 16 177.791 16C174.649 16 173.828 17.77 173.641 18.562C173.359 19.759 173.641 20.703 174.266 21.156C174.915 21.626 175.689 21.488 176.198 21.173C176.587 20.933 176.792 20.527 176.792 20C176.792 19.448 177.239 19 177.792 19C178.345 19 178.792 19.448 178.792 20C178.792 21.221 178.23 22.269 177.25 22.874C176.144 23.557 174.431 23.412 173.331 22.797C171.98 22.041 171.27 20.174 171.742 18.178C172.358 15.562 174.62 14 177.791 14C180.699 14 182.977 15.703 183.736 18.445C184.625 21.653 183.214 25.112 180.305 26.857C176.305 29.257 176.775 32.819 176.78 32.855C176.86 33.402 176.481 33.91 175.935 33.989C175.887 33.997 175.838 34 175.79 34V34Z" fill="#CCD6DD"/>
</svg>
