<svg width="196" height="75" viewBox="0 0 196 75" fill="none" xmlns="http://www.w3.org/2000/svg">
<path d="M2.61993 5.76501C2.31831 4.82665 2.5962 3.79865 3.3295 3.14004C4.06281 2.48142 5.11465 2.31516 6.01535 2.71546L16.8159 7.51572H181C187.904 7.51572 193.5 13.1122 193.5 20.0157V59.3685C193.5 66.2721 187.904 71.8685 181 71.8685H18.7618C11.8582 71.8685 6.2618 66.2721 6.2618 59.3685V17.0953L2.61993 5.76501Z" fill="#20E100" stroke="black" stroke-width="5" stroke-linejoin="round"/>
<path d="M54.4238 38.557V39.5677C54.4238 41.1888 54.2041 42.6439 53.7646 43.933C53.3252 45.222 52.7051 46.3207 51.9043 47.2289C51.1035 48.1273 50.1465 48.8158 49.0332 49.2943C47.9297 49.7728 46.7041 50.0121 45.3564 50.0121C44.0186 50.0121 42.793 49.7728 41.6797 49.2943C40.5762 48.8158 39.6191 48.1273 38.8086 47.2289C37.998 46.3207 37.3682 45.222 36.9189 43.933C36.4795 42.6439 36.2598 41.1888 36.2598 39.5677V38.557C36.2598 36.9261 36.4795 35.4711 36.9189 34.1918C37.3584 32.9027 37.9785 31.8041 38.7793 30.8959C39.5898 29.9877 40.5469 29.2943 41.6504 28.8158C42.7637 28.3373 43.9893 28.098 45.3271 28.098C46.6748 28.098 47.9004 28.3373 49.0039 28.8158C50.1172 29.2943 51.0742 29.9877 51.875 30.8959C52.6855 31.8041 53.3105 32.9027 53.75 34.1918C54.1992 35.4711 54.4238 36.9261 54.4238 38.557ZM49.9854 39.5677V38.5277C49.9854 37.3949 49.8828 36.3988 49.6777 35.5394C49.4727 34.6801 49.1699 33.9574 48.7695 33.3715C48.3691 32.7855 47.8809 32.3461 47.3047 32.0531C46.7285 31.7504 46.0693 31.599 45.3271 31.599C44.585 31.599 43.9258 31.7504 43.3496 32.0531C42.7832 32.3461 42.2998 32.7855 41.8994 33.3715C41.5088 33.9574 41.2109 34.6801 41.0059 35.5394C40.8008 36.3988 40.6982 37.3949 40.6982 38.5277V39.5677C40.6982 40.6908 40.8008 41.6869 41.0059 42.556C41.2109 43.4154 41.5137 44.1429 41.9141 44.7386C42.3145 45.3246 42.8027 45.7689 43.3789 46.0717C43.9551 46.3744 44.6143 46.5258 45.3564 46.5258C46.0986 46.5258 46.7578 46.3744 47.334 46.0717C47.9102 45.7689 48.3936 45.3246 48.7842 44.7386C49.1748 44.1429 49.4727 43.4154 49.6777 42.556C49.8828 41.6869 49.9854 40.6908 49.9854 39.5677ZM61.4404 27.2191V49.7191H57.2217V27.2191H61.4404ZM60.8398 41.2377H59.6826C59.6924 40.1342 59.8389 39.1185 60.1221 38.1908C60.4053 37.2533 60.8105 36.4427 61.3379 35.7592C61.8652 35.0658 62.4951 34.5287 63.2275 34.1478C63.9697 33.767 64.79 33.5765 65.6885 33.5765C66.4697 33.5765 67.1777 33.6888 67.8125 33.9135C68.457 34.1283 69.0088 34.4799 69.4678 34.9681C69.9365 35.4467 70.2979 36.0765 70.5518 36.8578C70.8057 37.639 70.9326 38.5863 70.9326 39.6996V49.7191H66.6846V39.6703C66.6846 38.9672 66.582 38.4154 66.377 38.015C66.1816 37.6049 65.8936 37.3168 65.5127 37.1508C65.1416 36.975 64.6826 36.8871 64.1357 36.8871C63.5303 36.8871 63.0127 36.9994 62.583 37.224C62.1631 37.4486 61.8262 37.7611 61.5723 38.1615C61.3184 38.5521 61.1328 39.0111 61.0156 39.5385C60.8984 40.0658 60.8398 40.6322 60.8398 41.2377ZM81.333 43.2006H77.5977C77.6074 42.3217 77.6758 41.5648 77.8027 40.9301C77.9395 40.2855 78.1689 39.7045 78.4912 39.1869C78.8232 38.6693 79.2627 38.1566 79.8096 37.6488C80.2686 37.2386 80.6689 36.848 81.0107 36.4769C81.3525 36.1058 81.6211 35.725 81.8164 35.3344C82.0117 34.934 82.1094 34.4896 82.1094 34.0013C82.1094 33.4349 82.0215 32.9662 81.8457 32.5951C81.6797 32.2142 81.4258 31.9261 81.084 31.7308C80.752 31.5355 80.332 31.4379 79.8242 31.4379C79.4043 31.4379 79.0137 31.5306 78.6523 31.7162C78.291 31.892 77.9932 32.1654 77.7588 32.5365C77.5342 32.9076 77.417 33.3959 77.4072 34.0013H73.1592C73.1885 32.6635 73.4961 31.5599 74.082 30.6908C74.6777 29.8119 75.4736 29.1625 76.4697 28.7426C77.4658 28.3129 78.584 28.098 79.8242 28.098C81.1914 28.098 82.3633 28.3226 83.3398 28.7719C84.3164 29.2113 85.0635 29.8607 85.5811 30.7201C86.0986 31.5697 86.3574 32.6049 86.3574 33.8256C86.3574 34.6752 86.1914 35.432 85.8594 36.0961C85.5273 36.7504 85.0928 37.3607 84.5557 37.9271C84.0186 38.4935 83.4277 39.0795 82.7832 39.6849C82.2266 40.183 81.8457 40.7054 81.6406 41.2523C81.4453 41.7992 81.3428 42.4486 81.333 43.2006ZM77.1582 47.7269C77.1582 47.1019 77.373 46.5844 77.8027 46.1742C78.2324 45.7543 78.8086 45.5443 79.5312 45.5443C80.2441 45.5443 80.8154 45.7543 81.2451 46.1742C81.6846 46.5844 81.9043 47.1019 81.9043 47.7269C81.9043 48.3324 81.6846 48.8451 81.2451 49.265C80.8154 49.6849 80.2441 49.8949 79.5312 49.8949C78.8086 49.8949 78.2324 49.6849 77.8027 49.265C77.373 48.8451 77.1582 48.3324 77.1582 47.7269Z" fill="white"/>
<path d="M153.079 40.2581H138.031C136.185 40.2581 134.688 41.7553 134.688 43.6019V52.7974H156.422V43.6019C156.422 41.7553 154.925 40.2581 153.079 40.2581Z" fill="#4289C1"/>
<path d="M138.867 45.2738H139.703V52.7974H138.867V45.2738Z" fill="#2A6797"/>
<path d="M134.439 44.8516L134.202 44.8023H133.775C133.775 44.7538 133.794 44.7087 133.804 44.661C133.513 44.4813 133.348 44.1386 133.421 43.785C133.515 43.3319 133.959 43.041 134.413 43.1338L136.161 43.4957H137.562C138.283 43.4957 138.867 44.0809 138.867 44.8032V46.1098H135.735C135.735 46.1098 134.497 45.5505 134.439 44.8516Z" fill="#FCAB40"/>
<path d="M130.508 44.1494C130.508 43.7883 130.8 43.4957 131.161 43.4957L135.081 44.1494H138.214C138.575 44.1494 138.867 44.4429 138.867 44.8023V46.1098H134.688L131.161 44.8032C131.161 44.8032 130.508 44.5106 130.508 44.1494Z" fill="#FFDC5D"/>
<path d="M133.852 52.7974H138.867V46.1098H134.688L133.852 52.7974Z" fill="#4289C1"/>
<path d="M151.407 45.2738H152.243V52.7974H151.407V45.2738Z" fill="#2A6797"/>
<path d="M156.672 44.8516L156.908 44.8023H157.335C157.335 44.7538 157.316 44.7087 157.306 44.661C157.597 44.4813 157.763 44.1386 157.689 43.785C157.595 43.3319 157.152 43.041 156.698 43.1338L154.95 43.4957H153.549C152.828 43.4957 152.244 44.0809 152.244 44.8032V46.1098H155.376C155.375 46.1098 156.613 45.5505 156.672 44.8516V44.8516Z" fill="#FCAB40"/>
<path d="M160.602 44.1494C160.602 43.7883 160.31 43.4957 159.949 43.4957L156.028 44.1494H152.896C152.534 44.1494 152.243 44.4429 152.243 44.8023V46.1098H156.422L159.949 44.8032C159.949 44.8032 160.602 44.5106 160.602 44.1494Z" fill="#FFDC5D"/>
<path d="M157.258 52.7974H152.243V46.1098H156.422L157.258 52.7974Z" fill="#4289C1"/>
<path d="M138.031 28.5547V36.9143C138.031 41.0698 141.399 44.4379 145.555 44.4379C149.711 44.4379 153.079 41.0698 153.079 36.9143V28.5547H138.031Z" fill="#FFDC5D"/>
<path d="M139.575 34.1682C139.575 35.489 138.907 36.5598 138.081 36.5598C137.255 36.5598 136.586 35.489 136.586 34.1682C136.586 32.8473 137.256 31.7765 138.081 31.7765C138.906 31.7765 139.575 32.8473 139.575 34.1682ZM154.524 34.1682C154.524 35.489 153.855 36.5598 153.029 36.5598C152.203 36.5598 151.535 35.489 151.535 34.1682C151.535 32.8473 152.203 31.7765 153.029 31.7765C153.855 31.7765 154.524 32.8473 154.524 34.1682Z" fill="#FFDC5D"/>
<path d="M145.555 23.391C139.688 23.391 137.079 27.3066 137.079 30.5702C137.079 33.8329 138.202 34.7383 138.383 33.8329C139.035 30.5702 140.992 29.5687 140.992 29.5687C144.904 32.8323 144.252 30.2216 144.252 30.2216C148.163 34.1372 146.208 30.2216 146.208 30.2216C147.512 31.5274 151.423 31.5274 151.423 31.5274C151.423 31.5274 152.076 32.5288 152.727 33.8338C153.379 35.1395 154.031 33.8338 154.031 30.571C154.031 27.3066 150.771 23.391 145.555 23.391V23.391Z" fill="#FFAC33"/>
<path d="M146.391 39.0041H144.719C144.488 39.0041 144.301 38.8169 144.301 38.5862C144.301 38.3554 144.488 38.1682 144.719 38.1682H146.391C146.622 38.1682 146.809 38.3554 146.809 38.5862C146.809 38.8169 146.622 39.0041 146.391 39.0041ZM147.645 41.93H147.227C146.996 41.93 146.809 41.7427 146.809 41.512C146.809 41.2813 146.996 41.094 147.227 41.094H147.645C147.876 41.094 148.063 41.2813 148.063 41.512C148.063 41.7427 147.876 41.93 147.645 41.93Z" fill="#BF6952"/>
<path d="M142.211 36.0783C141.75 36.0783 141.375 35.7038 141.375 35.2423V34.4064C141.375 33.9449 141.75 33.5704 142.211 33.5704C142.673 33.5704 143.047 33.9449 143.047 34.4064V35.2423C143.047 35.7038 142.673 36.0783 142.211 36.0783ZM148.899 36.0783C148.437 36.0783 148.063 35.7038 148.063 35.2423V34.4064C148.063 33.9449 148.437 33.5704 148.899 33.5704C149.361 33.5704 149.735 33.9449 149.735 34.4064V35.2423C149.735 35.7038 149.361 36.0783 148.899 36.0783Z" fill="#662113"/>
<path d="M127.164 38.4382C127.164 46.7484 120.427 53.4854 112.117 53.4854C103.807 53.4854 97.0696 46.7484 97.0696 38.4382C97.0696 30.1288 103.807 23.391 112.117 23.391C120.427 23.391 127.164 30.1288 127.164 38.4382Z" fill="#FFCC4D"/>
<path d="M112.117 50.9775C114.425 50.9775 116.297 48.7319 116.297 45.9618C116.297 43.1917 114.425 40.9461 112.117 40.9461C109.808 40.9461 107.937 43.1917 107.937 45.9618C107.937 48.7319 109.808 50.9775 112.117 50.9775Z" fill="#664500"/>
<path d="M102.085 32.5865C101.911 32.5865 101.734 32.5322 101.584 32.4193C101.214 32.1426 101.14 31.6185 101.417 31.249C104.144 27.6126 107.783 27.5708 107.937 27.5708C108.399 27.5708 108.773 27.9453 108.773 28.4068C108.773 28.8674 108.401 29.241 107.94 29.2427C107.811 29.2444 104.958 29.3146 102.754 32.2521C102.59 32.4712 102.339 32.5865 102.085 32.5865ZM122.149 32.5865C121.894 32.5865 121.644 32.4712 121.48 32.2521C119.273 29.3088 116.413 29.2444 116.292 29.2427C115.832 29.2377 115.461 28.8615 115.463 28.4026C115.466 27.942 115.837 27.5708 116.297 27.5708C116.45 27.5708 120.089 27.6126 122.817 31.249C123.095 31.6185 123.019 32.1426 122.65 32.4193C122.499 32.5322 122.324 32.5865 122.149 32.5865V32.5865Z" fill="#664500"/>
<path d="M112.117 42.618C110.732 42.618 109.609 44.1143 109.609 45.9618H114.625C114.625 44.1143 113.502 42.618 112.117 42.618Z" fill="#F5F8FA"/>
<path d="M107.101 38.4382C108.255 38.4382 109.191 37.1283 109.191 35.5124C109.191 33.8965 108.255 32.5865 107.101 32.5865C105.947 32.5865 105.011 33.8965 105.011 35.5124C105.011 37.1283 105.947 38.4382 107.101 38.4382Z" fill="#664500"/>
<path d="M117.133 38.4382C118.287 38.4382 119.222 37.1283 119.222 35.5124C119.222 33.8965 118.287 32.5865 117.133 32.5865C115.978 32.5865 115.043 33.8965 115.043 35.5124C115.043 37.1283 115.978 38.4382 117.133 38.4382Z" fill="#664500"/>
</svg>
