<svg width="199" height="75" viewBox="0 0 199 75" fill="none" xmlns="http://www.w3.org/2000/svg">
<path d="M2.62133 69.2306C2.31807 70.1682 2.59388 71.1965 3.32566 71.8565C4.05744 72.5165 5.10865 72.685 6.01007 72.2869L16.9949 67.4351H184C190.904 67.4351 196.5 61.8386 196.5 54.9351V15C196.5 8.09645 190.904 2.5 184 2.5H18.8225C11.9189 2.5 6.32247 8.09645 6.32247 15V57.7876L2.62133 69.2306Z" fill="#C3C3C3" stroke="black" stroke-width="5" stroke-linejoin="round"/>
<path d="M124.393 43.8929C122.963 43.8929 121.804 42.7337 121.804 41.3036V37.8512C121.804 36.4211 122.963 35.2619 124.393 35.2619C124.913 35.2567 129.571 34.3988 129.571 30.9464C129.571 29.2203 127.845 27.4941 125.256 27.4941C123.149 27.4941 121.804 29.2203 121.804 30.0833C121.804 31.5135 120.644 32.6726 119.214 32.6726C117.784 32.6726 116.625 31.5135 116.625 30.0833C116.625 25.8732 120.578 22.3155 125.256 22.3155C132.161 22.3155 134.75 27.4785 134.75 31.8095C134.75 35.3871 132.785 38.1214 129.215 39.5083C128.438 39.8113 127.67 40.015 126.982 40.1531V41.3036C126.982 42.7337 125.823 43.8929 124.393 43.8929Z" fill="#BE1931"/>
<path d="M124.393 50.7976C125.823 50.7976 126.982 49.6384 126.982 48.2083C126.982 46.7783 125.823 45.619 124.393 45.619C122.963 45.619 121.804 46.7783 121.804 48.2083C121.804 49.6384 122.963 50.7976 124.393 50.7976Z" fill="#BE1931"/>
<path d="M111.446 50.7976C112.876 50.7976 114.036 49.6384 114.036 48.2083C114.036 46.7783 112.876 45.619 111.446 45.619C110.016 45.619 108.857 46.7783 108.857 48.2083C108.857 49.6384 110.016 50.7976 111.446 50.7976Z" fill="#BE1931"/>
<path d="M114.036 41.3036C114.036 42.7337 112.877 43.8929 111.446 43.8929C110.016 43.8929 108.857 42.7337 108.857 41.3036V24.9048C108.857 23.4746 110.016 22.3155 111.446 22.3155C112.877 22.3155 114.036 23.4746 114.036 24.9048V41.3036Z" fill="#BE1931"/>
<path d="M156.327 24.0423C154.842 24.0423 153.442 24.3927 152.191 25.0012C151.851 24.9425 151.504 24.9054 151.149 24.9054C147.812 24.9054 145.107 27.6103 145.107 30.9471V41.3042H145.123C145.281 46.8858 149.845 51.3644 155.464 51.3644C161.084 51.3644 165.648 46.8858 165.806 41.3042H165.821V33.5363C165.821 28.293 161.571 24.0423 156.327 24.0423Z" fill="#FFAC33"/>
<path d="M163.232 39.578H147.696C147.696 39.578 139.929 39.578 139.929 45.6197C139.929 48.3436 143.381 51.6614 143.381 51.6614H167.548C167.548 51.6614 171 48.3436 171 45.6197C171 39.578 163.232 39.578 163.232 39.578Z" fill="#9268CA"/>
<path d="M155.464 47.3459C156.894 47.3459 158.054 46.1866 158.054 44.7566C158.054 43.3266 156.894 42.1673 155.464 42.1673C154.034 42.1673 152.875 43.3266 152.875 44.7566C152.875 46.1866 154.034 47.3459 155.464 47.3459Z" fill="#F9CA55"/>
<path d="M152.012 30.084C152.012 30.084 152.009 34.6653 147.696 35.2073V38.7149C147.696 43.0054 151.174 46.4828 155.464 46.4828C159.755 46.4828 163.232 43.0054 163.232 38.7149V36.1093C153.643 35.7847 152.012 30.084 152.012 30.084ZM154.601 49.9352L150.286 49.0721L148.559 48.209H145.97L145.107 51.6614H154.601C155.464 51.6614 155.464 50.7983 155.464 50.7983C155.464 50.321 154.601 49.9352 154.601 49.9352ZM162.369 48.209L160.643 49.0721L156.327 49.9352C156.327 49.9352 155.464 50.321 155.464 50.7983C155.464 50.7983 155.464 51.6614 156.327 51.6614H165.821L164.958 48.209H162.369Z" fill="#FFDC5D"/>
<path d="M158.917 39.5781C158.439 39.5781 158.054 39.1923 158.054 38.715V37.8519C158.054 37.3746 158.439 36.9888 158.917 36.9888C159.394 36.9888 159.78 37.3746 159.78 37.8519V38.715C159.78 39.1923 159.394 39.5781 158.917 39.5781ZM152.012 39.5781C151.535 39.5781 151.149 39.1923 151.149 38.715V37.8519C151.149 37.3746 151.535 36.9888 152.012 36.9888C152.488 36.9888 152.875 37.3746 152.875 37.8519V38.715C152.875 39.1923 152.488 39.5781 152.012 39.5781Z" fill="#662113"/>
<path d="M156.327 43.462H154.601C154.363 43.462 154.17 43.2686 154.17 43.0304C154.17 42.7922 154.363 42.5989 154.601 42.5989H156.327C156.566 42.5989 156.759 42.7922 156.759 43.0304C156.759 43.2686 156.566 43.462 156.327 43.462Z" fill="#C1694F"/>
<path d="M144.675 27.4947C144.494 27.4947 144.313 27.4386 144.158 27.3221L140.705 24.7328C140.324 24.4471 140.247 23.906 140.533 23.5245C140.819 23.1438 141.36 23.0662 141.741 23.3518L145.193 25.9411C145.575 26.2268 145.652 26.768 145.366 27.1495C145.196 27.3756 144.937 27.4947 144.675 27.4947ZM147.266 24.9054C146.987 24.9054 146.713 24.7708 146.547 24.5213L144.821 21.9321C144.556 21.535 144.664 20.9991 145.06 20.7349C145.456 20.47 145.992 20.5779 146.257 20.974L147.983 23.5633C148.247 23.9595 148.14 24.4963 147.744 24.7604C147.596 24.8588 147.43 24.9054 147.266 24.9054ZM166.254 27.4947C165.991 27.4947 165.733 27.3756 165.563 27.1495C165.276 26.768 165.354 26.2268 165.735 25.9411L169.188 23.3518C169.567 23.0644 170.109 23.143 170.395 23.5245C170.682 23.906 170.604 24.4471 170.222 24.7328L166.77 27.3221C166.615 27.4386 166.434 27.4947 166.254 27.4947V27.4947ZM163.663 24.9054C163.499 24.9054 163.332 24.8588 163.185 24.7604C162.788 24.4963 162.681 23.9603 162.946 23.5633L164.672 20.974C164.936 20.5779 165.47 20.4691 165.869 20.7349C166.266 20.9991 166.373 21.535 166.108 21.9321L164.382 24.5213C164.216 24.7708 163.942 24.9054 163.663 24.9054V24.9054Z" fill="#5DADEC"/>
<path d="M34.0459 44.6162L38.2939 26.6719H40.667L41.209 29.6602L36.6826 48H34.1338L34.0459 44.6162ZM31.8633 26.6719L35.3789 44.6162L35.0859 48H32.2441L27.5127 26.6719H31.8633ZM44.9443 44.543L48.416 26.6719H52.7666L48.0498 48H45.208L44.9443 44.543ZM42 26.6719L46.2773 44.6895L46.1602 48H43.6113L39.0557 29.6455L39.6416 26.6719H42ZM59.0068 25.5V48H54.7881V25.5H59.0068ZM58.4062 39.5186H57.249C57.2588 38.415 57.4053 37.3994 57.6885 36.4717C57.9717 35.5342 58.377 34.7236 58.9043 34.04C59.4316 33.3467 60.0615 32.8096 60.7939 32.4287C61.5361 32.0479 62.3564 31.8574 63.2549 31.8574C64.0361 31.8574 64.7441 31.9697 65.3789 32.1943C66.0234 32.4092 66.5752 32.7607 67.0342 33.249C67.5029 33.7275 67.8643 34.3574 68.1182 35.1387C68.3721 35.9199 68.499 36.8672 68.499 37.9805V48H64.251V37.9512C64.251 37.248 64.1484 36.6963 63.9434 36.2959C63.748 35.8857 63.46 35.5977 63.0791 35.4316C62.708 35.2559 62.249 35.168 61.7021 35.168C61.0967 35.168 60.5791 35.2803 60.1494 35.5049C59.7295 35.7295 59.3926 36.042 59.1387 36.4424C58.8848 36.833 58.6992 37.292 58.582 37.8193C58.4648 38.3467 58.4062 38.9131 58.4062 39.5186ZM80.2617 44.4258V37.3652C80.2617 36.8574 80.1787 36.4229 80.0127 36.0615C79.8467 35.6904 79.5879 35.4023 79.2363 35.1973C78.8945 34.9922 78.4502 34.8896 77.9033 34.8896C77.4346 34.8896 77.0293 34.9727 76.6875 35.1387C76.3457 35.2949 76.082 35.5244 75.8965 35.8271C75.7109 36.1201 75.6182 36.4668 75.6182 36.8672H71.3994C71.3994 36.1934 71.5557 35.5537 71.8682 34.9482C72.1807 34.3428 72.6348 33.8105 73.2305 33.3516C73.8262 32.8828 74.5342 32.5166 75.3545 32.2529C76.1846 31.9893 77.1123 31.8574 78.1377 31.8574C79.3682 31.8574 80.4619 32.0625 81.4189 32.4727C82.376 32.8828 83.1279 33.498 83.6748 34.3184C84.2314 35.1387 84.5098 36.1641 84.5098 37.3945V44.1768C84.5098 45.0459 84.5635 45.7588 84.6709 46.3154C84.7783 46.8623 84.9346 47.3408 85.1396 47.751V48H80.877C80.6719 47.5703 80.5156 47.0332 80.4082 46.3887C80.3105 45.7344 80.2617 45.0801 80.2617 44.4258ZM80.8184 38.3467L80.8477 40.7344H78.4893C77.9326 40.7344 77.4492 40.7979 77.0391 40.9248C76.6289 41.0518 76.292 41.2324 76.0283 41.4668C75.7646 41.6914 75.5693 41.9551 75.4424 42.2578C75.3252 42.5605 75.2666 42.8926 75.2666 43.2539C75.2666 43.6152 75.3496 43.9424 75.5156 44.2354C75.6816 44.5186 75.9209 44.7432 76.2334 44.9092C76.5459 45.0654 76.9121 45.1436 77.332 45.1436C77.9668 45.1436 78.5186 45.0166 78.9873 44.7627C79.4561 44.5088 79.8174 44.1963 80.0713 43.8252C80.335 43.4541 80.4717 43.1025 80.4814 42.7705L81.5947 44.5576C81.4385 44.958 81.2236 45.373 80.9502 45.8027C80.6865 46.2324 80.3496 46.6377 79.9395 47.0186C79.5293 47.3896 79.0361 47.6973 78.46 47.9414C77.8838 48.1758 77.2002 48.293 76.4092 48.293C75.4033 48.293 74.4902 48.0928 73.6699 47.6924C72.8594 47.2822 72.2148 46.7207 71.7363 46.0078C71.2676 45.2852 71.0332 44.4648 71.0332 43.5469C71.0332 42.7168 71.1895 41.9795 71.502 41.335C71.8145 40.6904 72.2734 40.1484 72.8789 39.709C73.4941 39.2598 74.2607 38.9229 75.1787 38.6982C76.0967 38.4639 77.1611 38.3467 78.3721 38.3467H80.8184ZM95.5254 32.1504V35.1387H86.2969V32.1504H95.5254ZM88.582 28.2393H92.8008V43.2246C92.8008 43.6836 92.8594 44.0352 92.9766 44.2793C93.1035 44.5234 93.2891 44.6943 93.5332 44.792C93.7773 44.8799 94.085 44.9238 94.4561 44.9238C94.7197 44.9238 94.9541 44.9141 95.1592 44.8945C95.374 44.8652 95.5547 44.8359 95.7012 44.8066L95.7158 47.9121C95.3545 48.0293 94.9639 48.1221 94.5439 48.1904C94.124 48.2588 93.6602 48.293 93.1523 48.293C92.2246 48.293 91.4141 48.1416 90.7207 47.8389C90.0371 47.5264 89.5098 47.0283 89.1387 46.3447C88.7676 45.6611 88.582 44.7627 88.582 43.6494V28.2393Z" fill="white"/>
</svg>
